<svg xmlns="http://www.w3.org/2000/svg" xmlns:xlink="http://www.w3.org/1999/xlink" width="500" zoomAndPan="magnify" viewBox="0 0 375 374.999991" height="500" preserveAspectRatio="xMidYMid meet" version="1.0"><defs><filter x="0%" y="0%" width="100%" height="100%" id="7100955ecc"><feColorMatrix values="0 0 0 0 1 0 0 0 0 1 0 0 0 0 1 0 0 0 1 0" color-interpolation-filters="sRGB"/></filter><g/><mask id="f8f9b43f62"><g filter="url(#7100955ecc)"><rect x="-37.5" width="450" fill="#000000" y="-37.499999" height="449.999989" fill-opacity="0.5176"/></g></mask><clipPath id="5c4a97a488"><path d="M 0.300781 0.410156 L 64.925781 0.410156 L 64.925781 195.34375 L 0.300781 195.34375 Z M 0.300781 0.410156 " clip-rule="nonzero"/></clipPath><clipPath id="de791d8690"><rect x="0" width="66" y="0" height="196"/></clipPath></defs><g fill="#faf6f5" fill-opacity="1"><g transform="translate(163.762405, 241.323977)"><g><path d="M 8.105469 -102.183594 C 8.105469 -66.714844 30.570312 -33.78125 69.078125 -33.78125 C 101.507812 -33.78125 125.660156 -59.789062 129.375 -81.242188 C 129.207031 -41.210938 112.992188 -1.011719 69.585938 -1.011719 C 51.34375 -1.011719 35.976562 -10.304688 23.984375 -21.28125 L 23.984375 -5.234375 C 38.507812 0 50.332031 3.378906 67.726562 3.378906 C 111.980469 3.378906 142.886719 -33.441406 142.886719 -82.421875 C 142.886719 -138.496094 115.527344 -172.277344 72.457031 -172.277344 C 36.144531 -172.277344 8.105469 -144.410156 8.105469 -102.183594 Z M 22.800781 -102.183594 C 23.816406 -136.640625 41.550781 -168.390625 72.796875 -168.390625 C 107.589844 -168.390625 127.011719 -130.390625 127.011719 -102.015625 C 127.011719 -83.265625 119.410156 -39.015625 68.742188 -39.015625 C 36.144531 -39.015625 21.957031 -71.273438 22.800781 -102.183594 Z M 22.800781 -102.183594 "/></g></g></g><g mask="url(#f8f9b43f62)"><g transform="matrix(1, 0, 0, 1, 155, 53)"><g clip-path="url(#de791d8690)"><g clip-path="url(#5c4a97a488)"><path fill="#ffffff" d="M 0.300781 0.410156 L 65.144531 0.410156 L 65.144531 195.5625 L 0.300781 195.5625 Z M 0.300781 0.410156 " fill-opacity="1" fill-rule="nonzero"/></g></g></g></g><g fill="#faf6f5" fill-opacity="1"><g transform="translate(56.387473, 241.323977)"><g><path d="M 8.105469 -102.183594 C 8.105469 -66.714844 30.570312 -33.78125 69.078125 -33.78125 C 101.507812 -33.78125 125.660156 -59.789062 129.375 -81.242188 C 129.207031 -41.210938 112.992188 -1.011719 69.585938 -1.011719 C 51.34375 -1.011719 35.976562 -10.304688 23.984375 -21.28125 L 23.984375 -5.234375 C 38.507812 0 50.332031 3.378906 67.726562 3.378906 C 111.980469 3.378906 142.886719 -33.441406 142.886719 -82.421875 C 142.886719 -138.496094 115.527344 -172.277344 72.457031 -172.277344 C 36.144531 -172.277344 8.105469 -144.410156 8.105469 -102.183594 Z M 22.800781 -102.183594 C 23.816406 -136.640625 41.550781 -168.390625 72.796875 -168.390625 C 107.589844 -168.390625 127.011719 -130.390625 127.011719 -102.015625 C 127.011719 -83.265625 119.410156 -39.015625 68.742188 -39.015625 C 36.144531 -39.015625 21.957031 -71.273438 22.800781 -102.183594 Z M 22.800781 -102.183594 "/></g></g></g><g fill="#faf6f5" fill-opacity="1"><g transform="translate(114.530027, 294.051543)"><g><path d="M 5.546875 -0.953125 C 6.035156 -0.953125 6.460938 -1 6.828125 -1.09375 C 7.203125 -1.195312 7.492188 -1.316406 7.703125 -1.453125 C 7.921875 -1.597656 8.09375 -1.769531 8.21875 -1.96875 C 8.351562 -2.175781 8.441406 -2.363281 8.484375 -2.53125 C 8.523438 -2.707031 8.546875 -2.894531 8.546875 -3.09375 C 8.546875 -3.5625 8.367188 -3.945312 8.015625 -4.25 C 7.671875 -4.5625 7.125 -4.816406 6.375 -5.015625 L 3.453125 -5.78125 C 1.910156 -6.1875 1.140625 -7.101562 1.140625 -8.53125 C 1.140625 -9.601562 1.515625 -10.453125 2.265625 -11.078125 C 3.015625 -11.703125 4.039062 -12.015625 5.34375 -12.015625 C 6.695312 -12.015625 7.75 -11.691406 8.5 -11.046875 C 9.257812 -10.398438 9.644531 -9.492188 9.65625 -8.328125 L 8.234375 -8.328125 C 8.210938 -9.109375 7.953125 -9.703125 7.453125 -10.109375 C 6.953125 -10.523438 6.226562 -10.734375 5.28125 -10.734375 C 4.488281 -10.734375 3.847656 -10.550781 3.359375 -10.1875 C 2.878906 -9.832031 2.640625 -9.351562 2.640625 -8.75 C 2.640625 -8.289062 2.78125 -7.929688 3.0625 -7.671875 C 3.351562 -7.421875 3.859375 -7.195312 4.578125 -7 L 7.546875 -6.203125 C 8.359375 -5.984375 8.976562 -5.617188 9.40625 -5.109375 C 9.84375 -4.597656 10.0625 -3.972656 10.0625 -3.234375 C 10.0625 -2.921875 10.019531 -2.609375 9.9375 -2.296875 C 9.863281 -1.992188 9.71875 -1.675781 9.5 -1.34375 C 9.28125 -1.019531 9.003906 -0.734375 8.671875 -0.484375 C 8.335938 -0.234375 7.894531 -0.03125 7.34375 0.125 C 6.789062 0.289062 6.160156 0.375 5.453125 0.375 C 5.003906 0.375 4.578125 0.335938 4.171875 0.265625 C 3.765625 0.191406 3.347656 0.0625 2.921875 -0.125 C 2.503906 -0.320312 2.144531 -0.566406 1.84375 -0.859375 C 1.539062 -1.160156 1.285156 -1.554688 1.078125 -2.046875 C 0.878906 -2.546875 0.78125 -3.117188 0.78125 -3.765625 L 2.203125 -3.765625 L 2.203125 -3.671875 C 2.203125 -3.335938 2.253906 -3.023438 2.359375 -2.734375 C 2.460938 -2.441406 2.628906 -2.15625 2.859375 -1.875 C 3.097656 -1.59375 3.445312 -1.367188 3.90625 -1.203125 C 4.363281 -1.035156 4.910156 -0.953125 5.546875 -0.953125 Z M 5.546875 -0.953125 "/></g></g></g><g fill="#faf6f5" fill-opacity="1"><g transform="translate(138.283193, 294.051543)"><g><path d="M 5.734375 -10.484375 L 5.734375 0 L 4.234375 0 L 4.234375 -10.484375 L 0.34375 -10.484375 L 0.34375 -11.8125 L 9.609375 -11.8125 L 9.609375 -10.484375 Z M 5.734375 -10.484375 "/></g></g></g><g fill="#faf6f5" fill-opacity="1"><g transform="translate(161.127614, 294.051543)"><g><path d="M 8.953125 -11.8125 L 10.453125 -11.8125 L 10.453125 -3.515625 C 10.453125 -2.328125 10.035156 -1.378906 9.203125 -0.671875 C 8.378906 0.0234375 7.273438 0.375 5.890625 0.375 C 4.492188 0.375 3.394531 0.0234375 2.59375 -0.671875 C 1.789062 -1.367188 1.390625 -2.316406 1.390625 -3.515625 L 1.390625 -11.8125 L 2.875 -11.8125 L 2.875 -3.515625 C 2.875 -2.660156 3.148438 -2.019531 3.703125 -1.59375 C 4.253906 -1.164062 4.984375 -0.953125 5.890625 -0.953125 C 6.835938 -0.953125 7.582031 -1.179688 8.125 -1.640625 C 8.675781 -2.097656 8.953125 -2.722656 8.953125 -3.515625 Z M 8.953125 -11.8125 "/></g></g></g><g fill="#faf6f5" fill-opacity="1"><g transform="translate(185.771512, 294.051543)"><g><path d="M 1.453125 0 L 1.453125 -11.8125 L 6 -11.8125 C 7.488281 -11.8125 8.660156 -11.285156 9.515625 -10.234375 C 10.367188 -9.179688 10.796875 -7.742188 10.796875 -5.921875 C 10.796875 -4.078125 10.367188 -2.628906 9.515625 -1.578125 C 8.660156 -0.523438 7.488281 0 6 0 Z M 2.953125 -1.328125 L 5.734375 -1.328125 C 6.898438 -1.328125 7.785156 -1.710938 8.390625 -2.484375 C 8.992188 -3.265625 9.296875 -4.398438 9.296875 -5.890625 C 9.296875 -7.398438 8.992188 -8.539062 8.390625 -9.3125 C 7.785156 -10.09375 6.898438 -10.484375 5.734375 -10.484375 L 2.953125 -10.484375 Z M 2.953125 -1.328125 "/></g></g></g><g fill="#faf6f5" fill-opacity="1"><g transform="translate(210.415405, 294.051543)"><g><path d="M 3.140625 -11.8125 L 3.140625 0 L 1.625 0 L 1.625 -11.8125 Z M 3.140625 -11.8125 "/></g></g></g><g fill="#faf6f5" fill-opacity="1"><g transform="translate(227.870374, 294.051543)"><g><path d="M 12.03125 -5.71875 C 12.03125 -4.875 11.894531 -4.078125 11.625 -3.328125 C 11.351562 -2.585938 10.976562 -1.941406 10.5 -1.390625 C 10.019531 -0.847656 9.414062 -0.414062 8.6875 -0.09375 C 7.96875 0.21875 7.175781 0.375 6.3125 0.375 C 4.613281 0.375 3.238281 -0.191406 2.1875 -1.328125 C 1.132812 -2.472656 0.609375 -3.96875 0.609375 -5.8125 C 0.609375 -7.65625 1.132812 -9.148438 2.1875 -10.296875 C 3.238281 -11.441406 4.613281 -12.015625 6.3125 -12.015625 C 8.039062 -12.015625 9.425781 -11.441406 10.46875 -10.296875 C 11.507812 -9.148438 12.03125 -7.625 12.03125 -5.71875 Z M 6.3125 -10.671875 C 5.050781 -10.671875 4.035156 -10.222656 3.265625 -9.328125 C 2.492188 -8.441406 2.109375 -7.269531 2.109375 -5.8125 C 2.109375 -4.351562 2.492188 -3.175781 3.265625 -2.28125 C 4.035156 -1.394531 5.050781 -0.953125 6.3125 -0.953125 C 7.5625 -0.953125 8.570312 -1.394531 9.34375 -2.28125 C 10.125 -3.164062 10.515625 -4.320312 10.515625 -5.75 C 10.515625 -7.238281 10.128906 -8.429688 9.359375 -9.328125 C 8.597656 -10.222656 7.582031 -10.671875 6.3125 -10.671875 Z M 6.3125 -10.671875 "/></g></g></g><g fill="#faf6f5" fill-opacity="1"><g transform="translate(253.423014, 294.051543)"><g><path d="M 5.546875 -0.953125 C 6.035156 -0.953125 6.460938 -1 6.828125 -1.09375 C 7.203125 -1.195312 7.492188 -1.316406 7.703125 -1.453125 C 7.921875 -1.597656 8.09375 -1.769531 8.21875 -1.96875 C 8.351562 -2.175781 8.441406 -2.363281 8.484375 -2.53125 C 8.523438 -2.707031 8.546875 -2.894531 8.546875 -3.09375 C 8.546875 -3.5625 8.367188 -3.945312 8.015625 -4.25 C 7.671875 -4.5625 7.125 -4.816406 6.375 -5.015625 L 3.453125 -5.78125 C 1.910156 -6.1875 1.140625 -7.101562 1.140625 -8.53125 C 1.140625 -9.601562 1.515625 -10.453125 2.265625 -11.078125 C 3.015625 -11.703125 4.039062 -12.015625 5.34375 -12.015625 C 6.695312 -12.015625 7.75 -11.691406 8.5 -11.046875 C 9.257812 -10.398438 9.644531 -9.492188 9.65625 -8.328125 L 8.234375 -8.328125 C 8.210938 -9.109375 7.953125 -9.703125 7.453125 -10.109375 C 6.953125 -10.523438 6.226562 -10.734375 5.28125 -10.734375 C 4.488281 -10.734375 3.847656 -10.550781 3.359375 -10.1875 C 2.878906 -9.832031 2.640625 -9.351562 2.640625 -8.75 C 2.640625 -8.289062 2.78125 -7.929688 3.0625 -7.671875 C 3.351562 -7.421875 3.859375 -7.195312 4.578125 -7 L 7.546875 -6.203125 C 8.359375 -5.984375 8.976562 -5.617188 9.40625 -5.109375 C 9.84375 -4.597656 10.0625 -3.972656 10.0625 -3.234375 C 10.0625 -2.921875 10.019531 -2.609375 9.9375 -2.296875 C 9.863281 -1.992188 9.71875 -1.675781 9.5 -1.34375 C 9.28125 -1.019531 9.003906 -0.734375 8.671875 -0.484375 C 8.335938 -0.234375 7.894531 -0.03125 7.34375 0.125 C 6.789062 0.289062 6.160156 0.375 5.453125 0.375 C 5.003906 0.375 4.578125 0.335938 4.171875 0.265625 C 3.765625 0.191406 3.347656 0.0625 2.921875 -0.125 C 2.503906 -0.320312 2.144531 -0.566406 1.84375 -0.859375 C 1.539062 -1.160156 1.285156 -1.554688 1.078125 -2.046875 C 0.878906 -2.546875 0.78125 -3.117188 0.78125 -3.765625 L 2.203125 -3.765625 L 2.203125 -3.671875 C 2.203125 -3.335938 2.253906 -3.023438 2.359375 -2.734375 C 2.460938 -2.441406 2.628906 -2.15625 2.859375 -1.875 C 3.097656 -1.59375 3.445312 -1.367188 3.90625 -1.203125 C 4.363281 -1.035156 4.910156 -0.953125 5.546875 -0.953125 Z M 5.546875 -0.953125 "/></g></g></g></svg>